<?xml version="1.0" encoding="utf-8"?>
<!-- Generator: Adobe Illustrator 20.1.0, SVG Export Plug-In . SVG Version: 6.00 Build 0)  -->
<svg version="1.1" id="Layer_1" xmlns="http://www.w3.org/2000/svg" xmlns:xlink="http://www.w3.org/1999/xlink" x="0px" y="0px"
	 viewBox="0 0 216 216" style="enable-background:new 0 0 216 216;" xml:space="preserve">
<style type="text/css">
	.st0{clip-path:url(#SVGID_3_);}
	.st1{fill:none;stroke:#FFFFFF;stroke-width:0.75;stroke-miterlimit:10;}
	.st2{clip-path:url(#SVGID_5_);}
</style>
<g>
	<g>
		<defs>
			<circle id="SVGID_2_" cx="105" cy="104.9" r="91.1"/>
		</defs>
		<clipPath id="SVGID_3_">
			<use xlink:href="#SVGID_2_"  style="overflow:visible;"/>
		</clipPath>
		<g class="st0">
			<polygon class="st1" points="32.6,78.8 32.6,86.1 38.2,96.9 49.8,110 51,112.6 55.9,117 55.9,123.7 60.3,129.5 62.9,129.7 
				64.7,128.6 72.8,130.7 89.4,126.6 103.4,116.4 108.1,117.3 108.1,119 110.1,119.6 112.5,119.3 123.2,125.4 126.5,125.7 
				131.7,128.3 135.8,135.6 140.1,144.1 141.9,154 141.9,162.7 136.7,166.8 151.2,168.3 151.2,162.4 156.5,147.7 159.1,145.8 
				167.2,164.5 164.9,168.3 180.9,168.3 177.7,163.6 177.2,153.4 176,150.8 171.6,135.3 186.2,139.1 190.6,140.3 199.6,140.3 
				209.8,137.1 223.5,131 234.6,120.8 242.4,130.4 245.1,134.2 248.3,147.7 250.6,158.1 243.9,168.3 259,168.3 261.4,168.3 
				265.2,158.9 270.7,154 267.8,131.3 270.7,121.4 275.9,103.9 277.4,113.5 274.8,120.2 270.7,127.2 275.6,125.4 279.1,118.2 
				279.1,114.1 278.2,91 272.2,75.1 264.1,67.2 251.3,60.3 244.1,59.6 231.9,55.8 226.9,55.8 216.6,57.9 203.1,60.5 193.6,60.5 
				185.5,59.5 173.6,57.5 156.9,54.1 149.1,53.5 134.1,56.7 116.6,62.4 98.1,71.9 90.6,65.8 87,72.7 88.7,75.9 87.7,76.2 77.9,69.6 
				76,71.2 77.1,77.2 78.4,82.6 80.9,83.3 79,89.5 76.4,93.2 73.4,95.2 66.6,92.9 63.5,89.1 61.9,89.6 61.9,95.2 61.9,102 56,101.7 
				50.3,100.8 44.5,97 39.8,91.1 36.4,85.4 33.7,79.2 			"/>
			<polygon class="st1" points="235,89 223.5,130.3 234.3,120.4 			"/>
			<polygon class="st1" points="159.1,147.1 164,120.8 166.9,124.7 			"/>
			<line class="st1" x1="171.6" y1="135.3" x2="163.7" y2="133"/>
			<polyline class="st1" points="78.4,82.6 77.9,69.6 80.9,83.3 87.7,76.2 			"/>
			<line class="st1" x1="77.9" y1="69.6" x2="84.4" y2="79.6"/>
			<polyline class="st1" points="98.1,71.9 98,81.2 93.4,81.2 88.7,75.9 90.6,65.8 			"/>
			<line class="st1" x1="93.4" y1="68" x2="96.9" y2="81.2"/>
			<line class="st1" x1="98" y1="81.2" x2="98.1" y2="87"/>
			<polyline class="st1" points="64.7,128.6 87.3,117 71.2,113.5 55.9,117 61.9,102 73.4,95.2 			"/>
			<polyline class="st1" points="71.2,113.5 76.4,93.2 98.1,87 93.4,81.2 91.9,66.8 			"/>
			<polyline class="st1" points="76.4,93.2 87.3,117 98.1,87 105.1,87.7 100.6,118.5 87.3,117 89.4,126.6 			"/>
			<polyline class="st1" points="87.3,117 105.1,87.7 98.8,71.5 			"/>
			<polyline class="st1" points="226.9,55.8 235.2,88.1 268.9,85.1 251.3,60.5 			"/>
			<polyline class="st1" points="272.2,75.1 268.9,84.1 264.1,67.2 			"/>
			<polyline class="st1" points="235.7,87.9 253.5,136.7 245.1,134.2 235.2,87 			"/>
			<polyline class="st1" points="278.2,91 275.9,103.9 235.2,87 261.9,129.6 253.5,136.7 250.6,158.1 265.2,158.9 261.9,129.6 
				275.9,103.9 268.9,84.1 			"/>
			<path class="st1" d="M253.5,136.7"/>
			<line class="st1" x1="265" y1="157.5" x2="253.5" y2="136.7"/>
			<line class="st1" x1="250.6" y1="158.1" x2="261.4" y2="168.3"/>
			<line class="st1" x1="108.1" y1="117.3" x2="112.5" y2="119.3"/>
			<polyline class="st1" points="114,79.6 99.3,120.4 137.4,57.1 103.9,89.3 			"/>
			<polygon class="st1" points="138,57.1 126.5,125.7 164,120.2 			"/>
			<polyline class="st1" points="203.2,60.3 235.9,89.3 136.9,55.5 190,107.9 163.4,121.6 			"/>
			<polyline class="st1" points="235.2,90.5 189.9,107.9 190.4,140.3 			"/>
			<polyline class="st1" points="199.6,140.3 190.2,108.1 223.5,131.3 			"/>
		</g>
		<use xlink:href="#SVGID_2_"  style="overflow:visible;fill:none;stroke:#FFFFFF;stroke-miterlimit:10;"/>
	</g>
	<g>
		<defs>
			<circle id="SVGID_4_" cx="105" cy="104.9" r="91.1"/>
		</defs>
		<clipPath id="SVGID_5_">
			<use xlink:href="#SVGID_4_"  style="overflow:visible;"/>
		</clipPath>
		<g class="st2">
			<circle class="st1" cx="105" cy="104.9" r="91.1"/>
			<polygon class="st1" points="170,168.7 105,13.8 36.1,164.6 			"/>
			<polygon class="st1" points="170,168.7 188.4,68.3 105,13.8 26,59.4 36.1,164.6 105,196.1 			"/>
			<polygon class="st1" points="104.2,196.1 166.7,38.6 41.7,38.6 			"/>
			<polygon class="st1" points="194.2,123.7 15.7,123.7 63.3,23.8 158.1,30.8 			"/>
			<polyline class="st1" points="139.9,181.4 105,13.8 72.8,181.4 			"/>
		</g>
		<use xlink:href="#SVGID_4_"  style="overflow:visible;fill:none;stroke:#FFFFFF;stroke-miterlimit:10;"/>
	</g>
	<g>
		<circle id="SVGID_1_" class="st1" cx="105" cy="104.9" r="91.1"/>
	</g>
</g>
</svg>
